ffmpeg version 3.4.8-0ubuntu0.2 Copyright (c) 2000-2020 the FFmpeg developers
  built with gcc 7 (Ubuntu 7.5.0-3ubuntu1~18.04)
  configuration: --prefix=/usr --extra-version=0ubuntu0.2 --toolchain=hardened --libdir=/usr/lib/x86_64-linux-gnu --incdir=/usr/include/x86_64-linux-gnu --enable-gpl --disable-stripping --enable-avresample --enable-avisynth --enable-gnutls --enable-ladspa --enable-libass --enable-libbluray --enable-libbs2b --enable-libcaca --enable-libcdio --enable-libflite --enable-libfontconfig --enable-libfreetype --enable-libfribidi --enable-libgme --enable-libgsm --enable-libmp3lame --enable-libmysofa --enable-libopenjpeg --enable-libopenmpt --enable-libopus --enable-libpulse --enable-librubberband --enable-librsvg --enable-libshine --enable-libsnappy --enable-libsoxr --enable-libspeex --enable-libssh --enable-libtheora --enable-libtwolame --enable-libvorbis --enable-libvpx --enable-libwavpack --enable-libwebp --enable-libx265 --enable-libxml2 --enable-libxvid --enable-libzmq --enable-libzvbi --enable-omx --enable-openal --enable-opengl --enable-sdl2 --enable-libdc1394 --enable-libdrm --enable-libiec61883 --enable-chromaprint --enable-frei0r --enable-libopencv --enable-libx264 --enable-shared
  libavutil      55. 78.100 / 55. 78.100
  libavcodec     57.107.100 / 57.107.100
  libavformat    57. 83.100 / 57. 83.100
  libavdevice    57. 10.100 / 57. 10.100
  libavfilter     6.107.100 /  6.107.100
  libavresample   3.  7.  0 /  3.  7.  0
  libswscale      4.  8.100 /  4.  8.100
  libswresample   2.  9.100 /  2.  9.100
  libpostproc    54.  7.100 / 54.  7.100
[rawvideo @ 0x562287d1ba20] Estimating duration from bitrate, this may be inaccurate
Input #0, rawvideo, from '../../SVC-Encoder-20220109T061506Z-001/SVC-Encoder/Dataset/RollerCoaster/ERP_8x8/tile_yuv/Tile_24_480x240.yuv':
  Duration: 00:00:10.00, start: 0.000000, bitrate: 41472 kb/s
    Stream #0:0: Video: rawvideo (I420 / 0x30323449), yuv420p, 480x240, 41472 kb/s, 30 tbr, 30 tbn, 30 tbc
Stream mapping:
  Stream #0:0 -> #0:0 (rawvideo (native) -> h264 (libx264))
Press [q] to stop, [?] for help
[libx264 @ 0x562287d28c60] using cpu capabilities: MMX2 SSE2Fast LZCNT SSSE3 SSE4.2 AVX
[libx264 @ 0x562287d28c60] profile High, level 2.1
Output #0, rawvideo, to 'RollerCoaster_Tile_24_480x240_x264_QP_20.h264':
  Metadata:
    encoder         : Lavf57.83.100
    Stream #0:0: Video: h264 (libx264), yuv420p, 480x240, q=-1--1, 30 fps, 30 tbn, 30 tbc
    Metadata:
      encoder         : Lavc57.107.100 libx264
    Side data:
      cpb: bitrate max/min/avg: 0/0/0 buffer size: 0 vbv_delay: -1
frame=  117 fps=0.0 q=26.0 PSNR=Y:nan U:nan V:nan *:nan size=     235kB time=00:00:02.46 bitrate= 780.3kbits/s speed=4.92x    frame=  214 fps=214 q=26.0 PSNR=Y:nan U:nan V:nan *:nan size=     512kB time=00:00:05.70 bitrate= 735.8kbits/s speed=5.69x    frame=  300 fps=182 q=26.0 LPSNR=Y:inf U:inf V:inf *:inf size=     899kB time=00:00:09.93 bitrate= 741.7kbits/s speed=6.03x    
video:899kB audio:0kB subtitle:0kB other streams:0kB global headers:0kB muxing overhead: 0.000000%
[libx264 @ 0x562287d28c60] frame I:2     Avg QP:17.21  size: 33896  PSNR Mean Y:47.11 U:49.80 V:52.41 Avg:48.05 Global:48.03
[libx264 @ 0x562287d28c60] frame P:76    Avg QP:19.24  size:  9117  PSNR Mean Y:43.56 U:49.32 V:51.29 Avg:44.87 Global:44.76
[libx264 @ 0x562287d28c60] frame B:222   Avg QP:25.39  size:   722  PSNR Mean Y:42.01 U:48.95 V:51.07 Avg:43.43 Global:43.37
[libx264 @ 0x562287d28c60] consecutive B-frames:  1.3%  0.0%  0.0% 98.7%
[libx264 @ 0x562287d28c60] mb I  I16..4:  0.0% 84.0% 16.0%
[libx264 @ 0x562287d28c60] mb P  I16..4:  0.0%  0.0%  0.0%  P16..4: 33.1% 31.6% 32.4%  0.0%  0.0%    skip: 2.8%
[libx264 @ 0x562287d28c60] mb B  I16..4:  0.0%  0.0%  0.0%  B16..8: 60.8%  9.5%  1.2%  direct: 0.7%  skip:27.8%  L0:40.5% L1:42.0% BI:17.4%
[libx264 @ 0x562287d28c60] 8x8 transform intra:83.9% inter:68.2%
[libx264 @ 0x562287d28c60] coded y,uvDC,uvAC intra: 99.8% 98.3% 79.3% inter: 25.4% 16.1% 0.1%
[libx264 @ 0x562287d28c60] i8 v,h,dc,ddl,ddr,vr,hd,vl,hu:  8% 20% 11%  5%  9%  7% 14% 13% 13%
[libx264 @ 0x562287d28c60] i4 v,h,dc,ddl,ddr,vr,hd,vl,hu: 10% 16%  8%  6% 10%  9% 14% 16% 10%
[libx264 @ 0x562287d28c60] i8c dc,h,v,p: 34% 26% 21% 20%
[libx264 @ 0x562287d28c60] Weighted P-Frames: Y:1.3% UV:0.0%
[libx264 @ 0x562287d28c60] ref P L0: 60.0% 21.3% 15.9%  2.7%  0.1%
[libx264 @ 0x562287d28c60] ref B L0: 89.6%  9.8%  0.6%
[libx264 @ 0x562287d28c60] ref B L1: 91.5%  8.5%
[libx264 @ 0x562287d28c60] PSNR Mean Y:42.436 U:49.045 V:51.134 Avg:43.823 Global:43.702 kb/s:736.71
